<svg version="1.1" viewBox="0.0 0.0 3840.0 2160.0" fill="none" stroke="none" stroke-linecap="square" stroke-miterlimit="10" xmlns:xlink="http://www.w3.org/1999/xlink" xmlns="http://www.w3.org/2000/svg"><clipPath id="g7575e348a6_0_200.0"><path d="m0 0l3840.0 0l0 2160.0l-3840.0 0l0 -2160.0z" clip-rule="nonzero"/></clipPath><g clip-path="url(#g7575e348a6_0_200.0)"><path fill="#000000" fill-opacity="0.0" d="m0 0l3840.0 0l0 2160.0l-3840.0 0z" fill-rule="evenodd"/><path fill="#000000" fill-opacity="0.0" d="m987.32806 1063.853l0 0c0 -527.34064 427.49408 -954.83466 954.83466 -954.83466l0 0c253.23792 0 496.10388 100.59836 675.17004 279.66458c179.06616 179.06625 279.66455 421.93216 279.66455 675.17004l0 0c0 527.3406 -427.4939 954.8346 -954.8346 954.8346l0 0c-527.3406 0 -954.83466 -427.49402 -954.83466 -954.8346z" fill-rule="evenodd"/><path stroke="#000000" stroke-width="12.0" stroke-linejoin="round" stroke-linecap="butt" d="m987.32806 1063.853l0 0c0 -527.34064 427.49408 -954.83466 954.83466 -954.83466l0 0c253.23792 0 496.10388 100.59836 675.17004 279.66458c179.06616 179.06625 279.66455 421.93216 279.66455 675.17004l0 0c0 527.3406 -427.4939 954.8346 -954.8346 954.8346l0 0c-527.3406 0 -954.83466 -427.49402 -954.83466 -954.8346z" fill-rule="evenodd"/><path fill="#000000" d="m1278.2773 538.2261c4.421753 -6.3622437 5.823242 -11.004395 21.994751 -6.477722c16.171509 4.5266724 58.96936 27.384094 75.03406 33.637817c16.06482 6.253723 18.657959 7.765503 21.35437 3.8845215c2.6964111 -3.8810425 -3.6657715 -18.222229 -5.1757812 -27.170654c-1.5101318 -8.948364 -2.3745117 -8.946594 -3.8845215 -26.519653c-1.5101318 -17.57306 -6.901123 -61.66754 -5.1759033 -78.91864c1.7253418 -17.251099 7.8723145 -20.81366 15.527588 -24.587921c7.6552734 -3.774292 18.7594 -3.233612 30.404175 1.9422607c11.644775 5.1758423 16.715698 8.195984 39.4646 29.112854c22.748901 20.9169 75.68152 74.39371 97.02881 96.38846c21.347412 21.994751 25.555542 25.984253 31.055176 35.580017c5.4995117 9.595825 3.776001 16.603699 1.9422607 21.994751c-1.8337402 5.3911133 -7.338623 9.273865 -12.944946 10.351746c-5.6063232 1.0778809 -7.755005 6.897644 -20.692871 -3.8845215c-12.937866 -10.782166 -37.634277 -41.18634 -56.93445 -60.80841c-19.300049 -19.62201 -46.57556 -45.926514 -58.86609 -56.92389c-12.290405 -10.9973755 -12.073486 -10.029724 -14.876587 -9.060364c-2.8032227 0.96939087 -1.9422607 6.5756836 -1.9422607 14.876648c0 8.300964 0.6491699 22.853882 1.9422607 34.92914c1.2930908 12.075256 3.767212 26.846863 5.816284 37.522278c2.0489502 10.675415 5.7216797 18.874939 6.477661 26.530212c0.7558594 7.6552734 0.7541504 13.903748 -1.9422607 19.40155c-2.6964111 5.497864 -7.0113525 11.644836 -14.236206 13.585327c-7.2248535 1.9404907 -17.25293 1.8320312 -29.112915 -1.9422607c-11.859985 -3.774292 -31.158325 -16.283447 -42.04724 -20.70343c-10.888916 -4.419922 -20.05249 -8.297424 -23.286133 -5.816223c-3.2335205 2.4811401 -0.10498047 10.568665 3.8845215 20.70337c3.989502 10.134766 10.995728 23.286133 20.05249 40.10498c9.056885 16.818909 26.957153 47.870544 34.28882 60.80841c7.331543 12.937866 8.516113 11.104126 9.700684 16.818909c1.1846924 5.7147827 -0.11364746 13.373596 -2.5931396 17.469788c-2.47937 4.0962524 -6.892334 6.461975 -12.283447 7.107666c-5.3911133 0.6456299 -12.299194 4.5283813 -20.062988 -3.2336426c-7.763794 -7.762024 -15.954468 -24.902893 -26.519653 -43.338562c-10.565186 -18.435669 -27.168945 -47.975525 -36.87146 -67.27557c-9.702515 -19.30011 -16.167969 -36.125977 -21.34375 -48.524963c-5.1759033 -12.398926 -8.848755 -16.27472 -9.711304 -25.868774c-0.8626709 -9.594055 0.11364746 -25.333313 4.5354004 -31.695496z" fill-rule="evenodd"/><path fill="#000000" d="m1619.8406 510.77338c2.3728027 -36.87314 6.3623047 -143.18634 13.585327 -178.55118c7.2231445 -35.364838 20.159302 -29.326355 29.753296 -33.637787c9.594116 -4.3114624 18.96936 -0.7489319 27.811035 7.7690125c8.841675 8.517944 14.995605 25.550293 25.238892 43.338593c10.243164 17.788269 23.499512 43.336823 36.22046 63.391083c12.720825 20.05423 29.861694 43.34906 40.10498 56.934357c10.243164 13.585327 17.041138 17.03064 21.354248 24.577454c4.3132324 7.5467834 5.6029053 14.880127 4.5250244 20.70337c-1.0778809 5.823303 -6.1400146 11.863525 -10.9921875 14.236267c-4.852173 2.3726807 -12.082275 3.559021 -18.120728 0c-6.038452 -3.559082 -11.858276 -13.914307 -18.11023 -21.35434c-6.251953 -7.440094 -13.686768 -19.18985 -19.401611 -23.286102c-5.7147217 -4.096222 -7.555542 -2.6929016 -14.887085 -1.2913208c-7.331543 1.4015503 -17.13562 6.7908936 -29.102417 9.700775c-11.966675 2.9098816 -35.473267 0.5354309 -42.69812 7.7585144c-7.2248535 7.223114 1.0743408 25.445312 -0.6508789 35.58008c-1.7253418 10.134705 -4.848633 19.83728 -9.700806 25.228333c-4.852173 5.3910522 -13.482056 8.519714 -19.41211 7.118103c-5.9300537 -1.4015503 -13.581787 -5.825012 -16.167969 -15.527527c-2.5861816 -9.702576 -1.7218018 -5.814575 0.6508789 -42.687683z" fill-rule="evenodd"/><path fill="#ffffff" d="m1676.1193 379.44135c-2.3726807 4.5284424 -3.0184326 22.642181 -3.2336426 35.580048c-0.21520996 12.937897 -4.7418213 36.65619 1.9422607 42.04727c6.684204 5.3910522 31.370117 -6.1434937 38.16272 -9.700806c6.7927246 -3.557312 6.904663 -1.7235413 2.5932617 -11.643036c-4.3115234 -9.919525 -21.884521 -38.49344 -28.462036 -47.874023c-6.5773926 -9.380585 -8.629883 -12.937866 -11.002563 -8.409454z" fill-rule="evenodd"/><path stroke="#000000" stroke-width="1.0" stroke-linejoin="round" stroke-linecap="butt" d="m1676.1193 379.44135c-2.3726807 4.5284424 -3.0184326 22.642181 -3.2336426 35.580048c-0.21520996 12.937897 -4.7418213 36.65619 1.9422607 42.04727c6.684204 5.3910522 31.370117 -6.1434937 38.16272 -9.700806c6.7927246 -3.557312 6.904663 -1.7235413 2.5932617 -11.643036c-4.3115234 -9.919525 -21.884521 -38.49344 -28.462036 -47.874023c-6.5773926 -9.380585 -8.629883 -12.937866 -11.002563 -8.409454z" fill-rule="evenodd"/><path fill="#000000" d="m1858.5398 297.9392c4.5284424 -10.9973755 14.9921875 -29.653564 24.58789 -41.40683c9.595825 -11.753296 21.989502 -22.75241 32.98694 -29.11287c10.997314 -6.3604584 22.0 -8.08049 32.997314 -9.049866c10.997437 -0.9693756 22.745483 -0.21522522 32.98694 3.2335968c10.241455 3.448822 20.2677 9.373581 28.461914 17.45932c8.194214 8.085739 16.281738 18.762909 20.70337 31.055115c4.421753 12.292206 6.257324 28.897644 5.826782 42.69815c-0.43041992 13.800537 -2.90979 28.353455 -8.409424 40.10498c-5.4995117 11.751556 -15.637817 21.562561 -24.58789 30.404205c-8.950195 8.841644 -22.537231 17.469818 -29.112915 22.64569c-6.5756836 5.1758423 -9.802246 3.989502 -10.341187 8.409424c-0.5389404 4.4199524 1.5013428 10.239746 7.107666 18.11026c5.6063232 7.870514 18.118896 19.40857 26.530151 29.112854c8.411255 9.704285 18.223999 21.88977 23.937012 29.112854c5.7130127 7.223114 8.617676 8.619415 10.341187 14.225739c1.7235107 5.6062927 1.6168213 14.559937 0 19.412048c-1.6168213 4.852173 -5.1723633 7.975525 -9.700806 9.700806c-4.5284424 1.7252808 -10.892334 4.3167114 -17.469727 0.65093994c-6.5775146 -3.6658325 -13.261597 -12.402466 -21.994751 -22.64569c-8.733276 -10.243225 -21.132202 -27.277344 -30.404297 -38.81366c-9.272095 -11.536316 -18.437378 -22.20996 -25.228271 -30.404205c-6.7908936 -8.194214 -12.713989 -11.860016 -15.51709 -18.761139c-2.8031006 -6.9011536 -2.4864502 -16.607178 -1.3018799 -22.64566c1.1846924 -6.038513 2.8032227 -9.165375 8.409546 -13.585327c5.606201 -4.419922 16.495117 -7.004364 25.228271 -12.934387c8.733154 -5.9299927 19.9458 -15.852997 27.170654 -22.64566c7.2248535 -6.792633 12.619385 -9.700775 16.178467 -18.11023c3.559082 -8.409454 5.390991 -23.398071 5.1757812 -32.346466c-0.21520996 -8.948364 -2.8013916 -15.413818 -6.467163 -21.343811c-3.6657715 -5.930023 -9.597534 -11.539825 -15.527588 -14.236237c-5.9299316 -2.6964111 -13.044556 -3.6675415 -20.05249 -1.9422607c-7.0078125 1.7252808 -15.525757 6.685913 -21.994751 12.293976c-6.468872 5.608032 -12.181885 14.453186 -16.818848 21.35434c-4.636963 6.901123 -9.384033 11.751526 -11.002686 20.05249c-1.6185303 8.300964 1.1828613 14.659668 1.2913818 29.753265c0.10852051 15.093628 -0.8574219 40.43045 -0.64038086 60.80841c0.21691895 20.37796 0.9729004 43.56079 1.9422607 61.45932c0.96936035 17.898499 3.552002 35.258087 3.8740234 45.931763c0.3218994 10.673645 0.5371094 13.798767 -1.9422607 18.11023c-2.4794922 4.3114624 -8.299194 6.680664 -12.934448 7.758545c-4.635132 1.0778198 -10.5633545 0.5406494 -14.876587 -1.2913818c-4.3132324 -1.8319702 -8.414673 -3.4470215 -11.002686 -9.700745c-2.5878906 -6.253723 -3.4470215 -15.746277 -4.5249023 -27.821533c-1.0778809 -12.075256 -1.5118408 -28.026245 -1.9422607 -44.629944c-0.43041992 -16.603668 -0.10144043 -36.230957 -0.64038086 -54.992126c-0.5389404 -18.761139 -1.9458008 -44.09796 -2.5932617 -57.5748c-0.64733887 -13.476807 -1.5064697 -15.308838 -1.2912598 -23.286072c0.21520996 -7.9772644 -1.9458008 -13.580048 2.5826416 -24.577423z" fill-rule="evenodd"/><path fill="#000000" d="m2152.879 310.88123c2.909912 -4.4199524 6.467041 -9.702515 11.643066 -11.643036c5.1757812 -1.9405212 14.020996 -2.3709412 19.411865 0c5.3911133 2.3709412 11.317627 7.756775 12.93457 14.225708c1.6166992 6.4689636 -1.1845703 15.961517 -3.2336426 24.587952c-2.0490723 8.626404 -7.982422 21.02536 -9.060303 27.170593c-1.0778809 6.145233 -0.96606445 10.239716 2.5930176 9.700775c3.559082 -0.5389099 8.0876465 -8.190704 18.76123 -12.934387c10.673584 -4.7436523 30.726074 -10.7838745 45.28076 -15.527557c14.5546875 -4.7436523 31.373535 -11.424316 42.047363 -12.934357c10.673584 -1.5100708 16.927246 -0.43746948 21.994629 3.873993c5.067383 4.3114624 8.516357 15.956268 8.409424 21.994751c-0.10668945 6.038513 1.300293 9.492584 -9.049805 14.236237c-10.3498535 4.7436523 -36.985107 9.482056 -53.049805 14.225708c-16.064697 4.7436523 -31.478516 9.599304 -43.338623 14.236237c-11.860107 4.636902 -22.969482 7.870514 -27.821533 13.585297c-4.852051 5.7147827 -3.340332 12.724396 -1.2912598 20.7034c2.0488281 7.979004 8.087402 16.066498 13.585205 27.170624c5.4978027 11.104095 13.256348 28.673645 19.401611 39.45407c6.1452637 10.780365 14.558105 17.68155 17.469727 25.228302c2.911621 7.546814 2.0490723 14.985168 0 20.052551c-2.0488281 5.067322 -6.902832 8.841614 -12.293945 10.351685c-5.3911133 1.5100708 -13.044434 4.421692 -20.05249 -1.2913208c-7.0078125 -5.7130737 -14.447998 -19.940552 -21.994629 -32.986877c-7.546875 -13.046387 -18.110352 -35.048157 -23.286133 -45.29135c-5.1757812 -10.243225 -4.9658203 -13.903778 -7.769043 -16.168c-2.8032227 -2.2642212 -6.7856445 -1.9457397 -9.049805 2.582672c-2.2641602 4.5284424 -1.4086914 15.314087 -4.5354004 24.587952c-3.1269531 9.273834 -9.158447 21.45932 -14.22583 31.055084c-5.067383 9.595825 -10.572266 21.237122 -16.178467 26.519714c-5.606201 5.282593 -12.391846 5.284363 -17.459229 5.1758423c-5.067383 -0.10845947 -9.602783 -2.3762207 -12.945068 -5.826782c-3.342041 -3.4505615 -7.539795 -8.083984 -7.107422 -14.876648c0.4321289 -6.7926025 5.38916 -14.666626 9.700684 -25.879242c4.3115234 -11.212585 10.453125 -25.655304 16.167969 -41.39633c5.7148438 -15.741028 12.082275 -35.368317 18.12085 -53.049866c6.03833 -17.68155 13.042725 -38.69992 18.110107 -53.039368c5.067383 -14.339447 9.275635 -25.018372 12.293945 -32.997375c3.0183105 -7.979004 2.9064941 -10.456696 5.8164062 -14.876648z" fill-rule="evenodd"/><path fill="#000000" d="m2460.9949 596.5632c6.3342285 -10.500488 -0.65966797 -41.84082 1.0078125 -57.007874c1.6677246 -15.167114 4.164551 -24.49524 8.997559 -33.99478c4.8327637 -9.499542 13.333252 -17.669281 20.0 -23.002625c6.666504 -5.333313 12.500244 -7.4978027 20.0 -8.9973755c7.4995117 -1.4995422 17.497803 -1.8337708 24.997314 0c7.4995117 1.8337708 12.16626 3.5030823 20.0 11.0026245c7.83374 7.4995728 19.83545 22.16275 27.002686 33.99478c7.166992 11.83197 13.333252 24.164429 16.0 36.997375c2.666504 12.832886 3.4995117 28.166199 0 40.0c-3.4997559 11.83374 -13.163818 22.502136 -20.997559 31.002625c-7.83374 8.500427 -15.504639 15.6657715 -26.005127 20.0c-10.500488 4.3341675 -29.998291 2.8381348 -36.997314 6.005249c-6.9992676 3.1670532 -4.9975586 -0.16802979 -4.9975586 12.9973755c0 13.165344 -1.5012207 54.661377 4.9975586 65.99475c6.498535 11.333313 25.82837 -0.49523926 33.99463 2.005249c8.16626 2.5004272 13.002686 7.4978027 15.002686 12.9973755c2.0 5.4995117 0.49682617 14.666626 -3.0026855 20.0c-3.4995117 5.333313 -10.995605 10.166199 -17.994629 12.0c-6.9992676 1.8337402 -18.833008 -3.6640625 -24.0 -0.9973755c-5.1672363 2.666626 -5.8356934 8.9973755 -7.0026855 16.997375c-1.1672363 8.0 1.8337402 23.335083 0 31.002625c-1.8337402 7.6675415 -4.836426 12.670166 -11.002686 15.0026245c-6.16626 2.3324585 -20.661377 3.326294 -25.994629 -1.0078735c-5.333496 -4.3342285 -5.1723633 -15.497864 -6.005371 -24.997375c-0.8327637 -9.499573 5.340332 -24.666687 1.0078125 -32.0c-4.3322754 -7.333374 -16.834473 -8.666687 -27.002441 -12.0c-10.167969 -3.333374 -22.005371 -1.8338013 -34.00537 -8.0c-12.0 -6.16626 -27.828613 -18.664917 -37.99463 -28.997375c-10.16626 -10.3324585 -17.335205 -20.831177 -23.002686 -32.997375c-5.6674805 -12.16626 -11.835449 -26.832947 -11.002686 -40.0c0.8330078 -13.167114 7.165283 -29.669312 16.0 -39.002625c8.834717 -9.333374 25.174072 -13.830322 37.007812 -16.997375c11.83374 -3.1671143 22.162842 -0.67193604 33.994873 -2.005249c11.832031 -1.333374 30.663086 4.5056763 36.997314 -5.994751z" fill-rule="evenodd"/><path fill="#eeeeee" d="m2390.0073 651.5559c-5.333252 5.1654053 -2.5021973 18.332458 0.9975586 28.0c3.4995117 9.6675415 11.83374 22.171509 20.0 30.005249c8.16626 7.8338013 19.830078 13.497864 28.997314 16.997375c9.166992 3.4995728 21.504883 7.6658325 26.005127 4.0c4.5004883 -3.6657715 0.66503906 -15.328064 0.9975586 -25.994751c0.3322754 -10.666626 1.4978027 -28.671875 0.99731445 -38.00525c-0.5004883 -9.333313 3.4995117 -14.995605 -4.0 -17.994751c-7.4995117 -2.9990845 -28.66504 -0.49865723 -40.997314 0c-12.33252 0.49871826 -27.664062 -2.1732178 -32.99756 2.9921265z" fill-rule="evenodd"/><path stroke="#595959" stroke-width="1.0" stroke-linejoin="round" stroke-linecap="butt" d="m2390.0073 651.5559c-5.333252 5.1654053 -2.5021973 18.332458 0.9975586 28.0c3.4995117 9.6675415 11.83374 22.171509 20.0 30.005249c8.16626 7.8338013 19.830078 13.497864 28.997314 16.997375c9.166992 3.4995728 21.504883 7.6658325 26.005127 4.0c4.5004883 -3.6657715 0.66503906 -15.328064 0.9975586 -25.994751c0.3322754 -10.666626 1.4978027 -28.671875 0.99731445 -38.00525c-0.5004883 -9.333313 3.4995117 -14.995605 -4.0 -17.994751c-7.4995117 -2.9990845 -28.66504 -0.49865723 -40.997314 0c-12.33252 0.49871826 -27.664062 -2.1732178 -32.99756 2.9921265z" fill-rule="evenodd"/><path fill="#ffffff" d="m2510.0046 603.5634c4.5004883 4.5004272 17.664062 5.6710815 24.997314 2.005249c7.333252 -3.6657715 16.836426 -15.167114 19.002686 -24.0c2.1662598 -8.832886 -2.671875 -20.496948 -6.005371 -28.997375c-3.333252 -8.500427 -9.494141 -17.338562 -13.994629 -22.005249c-4.5004883 -4.666626 -9.340332 -7.161865 -13.0078125 -5.994751c-3.6677246 1.1671143 -6.831299 3.998291 -8.997559 12.9973755c-2.1662598 8.9991455 -3.6674805 29.998291 -4.0 40.997375c-0.3322754 10.9991455 -2.4951172 20.496948 2.005371 24.997375z" fill-rule="evenodd"/><path stroke="#000000" stroke-width="1.0" stroke-linejoin="round" stroke-linecap="butt" d="m2510.0046 603.5634c4.5004883 4.5004272 17.664062 5.6710815 24.997314 2.005249c7.333252 -3.6657715 16.836426 -15.167114 19.002686 -24.0c2.1662598 -8.832886 -2.671875 -20.496948 -6.005371 -28.997375c-3.333252 -8.500427 -9.494141 -17.338562 -13.994629 -22.005249c-4.5004883 -4.666626 -9.340332 -7.161865 -13.0078125 -5.994751c-3.6677246 1.1671143 -6.831299 3.998291 -8.997559 12.9973755c-2.1662598 8.9991455 -3.6674805 29.998291 -4.0 40.997375c-0.3322754 10.9991455 -2.4951172 20.496948 2.005371 24.997375z" fill-rule="evenodd"/><path fill="#000000" d="m1314.0057 1288.5643c-4.666748 -5.1671143 -7.506592 -5.0043945 -9.007935 -10.005249c-1.5013428 -5.0008545 -2.5003662 -14.666748 0 -20.0c2.5004883 -5.333374 8.834717 -10.666748 15.002686 -12.0c6.1679688 -1.333374 14.005249 -1.333374 22.005249 4.0c8.0 5.333252 16.495117 18.0 25.994751 28.0c9.499512 10.0 20.335938 19.83374 31.002563 32.0c10.666626 12.16626 21.497803 26.496948 32.997437 40.997314c11.499512 14.500488 30.332397 33.504883 36.0 46.00525c5.6674805 12.500488 0.0052490234 22.831177 -1.994751 28.997437c-2.0 6.16626 -5.0043945 6.9991455 -10.005249 8.0c-5.0009766 1.0008545 -13.167114 2.671875 -20.0 -1.994751c-6.8328857 -4.666748 -14.330811 -17.004395 -20.997437 -26.005249c-6.666626 -9.0008545 -13.168823 -23.000854 -19.002563 -28.0c-5.8338623 -4.9991455 -9.000977 -5.828491 -16.0 -1.994751c-6.9991455 3.8337402 -14.661499 15.832031 -25.994751 24.997314c-11.333374 9.165405 -29.504883 21.494385 -42.00525 29.994751c-12.500488 8.500488 -23.664062 15.340332 -32.997437 21.007935c-9.333374 5.6674805 -15.503052 10.664917 -23.002563 12.997314c-7.499634 2.3325195 -16.32898 3.331665 -21.994751 0.9974365c-5.6658936 -2.3342285 -10.498779 -8.836426 -12.0 -15.002686c-1.5013428 -6.1661377 -3.8408203 -14.661377 2.9920654 -21.994751c6.8328857 -7.333252 23.004395 -12.671875 38.00525 -22.005249c15.0008545 -9.333252 36.50049 -22.16272 52.0 -33.99475c15.499634 -11.832031 37.99829 -26.330688 40.997437 -36.997314c2.9990234 -10.666748 -16.00354 -19.002686 -23.002686 -27.002686c-6.9991455 -8.0 -14.325439 -15.8302 -18.992065 -20.997314z" fill-rule="evenodd"/><path fill="#000000" d="m1409.0027 1536.9973c9.333252 -12.332397 28.006958 -36.992065 37.007812 -50.992065c9.0008545 -14.0 11.832031 -25.174072 16.997437 -33.007935c5.165283 -7.83374 8.661377 -11.828491 13.994751 -13.994629c5.333252 -2.1662598 13.338501 -1.1689453 18.005249 0.99731445c4.666626 2.1662598 7.828491 6.666626 9.994751 12.0c2.1661377 5.333374 6.1679688 10.832886 3.0025635 20.0c-3.1654053 9.167114 -14.161011 23.168823 -21.994751 35.002686c-7.83374 11.83374 -20.507446 27.333252 -25.007812 36.0c-4.5004883 8.666626 -5.8286133 10.166138 -1.994751 16.0c3.8337402 5.83374 17.66394 13.002563 24.997314 19.002563c7.333374 6.0 13.503052 15.497803 19.002686 16.997437c5.4995117 1.4995117 8.827637 1.1669922 13.994751 -8.0c5.166992 -9.167114 12.673584 -35.335083 17.007812 -47.002686c4.3342285 -11.667603 4.9974365 -17.168823 8.997437 -23.002686c4.0 -5.83374 9.002563 -10.834595 15.002563 -12.0c6.0 -1.1652832 16.330688 0.3413086 20.997437 5.0079346c4.666626 4.666626 7.835449 13.492554 7.0025635 22.992065c-0.83288574 9.499634 -7.333374 21.504883 -12.0 34.00537c-4.666626 12.500366 -8.9991455 25.331543 -16.0 40.997314c-7.0008545 15.6657715 -17.83728 37.163574 -26.005249 52.997314c-8.167969 15.833862 -15.669312 29.671143 -23.002563 42.00537c-7.333374 12.334106 -13.6640625 26.166138 -20.997437 32.0c-7.333374 5.83374 -17.002563 4.8363037 -23.002563 3.0025635c-6.0 -1.8337402 -11.331665 -7.6710205 -12.997437 -14.005249c-1.6657715 -6.3342285 -2.1644287 -13.0008545 3.0026855 -24.0c5.166992 -10.9991455 22.500366 -31.828491 28.0 -41.99475c5.4995117 -10.16626 8.164429 -13.168823 4.9973145 -19.002563c-3.1671143 -5.8338623 -15.0008545 -8.833008 -24.0 -16.0c-8.9991455 -7.1671143 -23.161865 -22.502197 -29.994751 -27.002686c-6.8328857 -4.5004883 -6.1679688 -4.5004883 -11.002563 0c-4.834717 4.5004883 -12.005249 17.002686 -18.005249 27.002686c-6.0 10.0 -11.496094 26.664917 -17.994751 32.997314c-6.4987793 6.3323975 -14.997437 5.4978027 -20.997437 4.9973145c-6.0 -0.5003662 -11.669312 -3.6674805 -15.002563 -8.0c-3.333374 -4.3323975 -6.3308105 -9.828491 -4.9974365 -17.994629c1.333374 -8.16626 5.6640625 -18.502197 12.997437 -31.002686c7.333252 -12.500488 22.670166 -32.832886 31.002563 -44.0c8.33252 -11.167114 9.658813 -10.670166 18.992188 -23.002686z" fill-rule="evenodd"/><path fill="#000000" d="m1625.0194 1544.796c4.5284424 -4.7436523 9.272095 -6.040283 16.81897 -3.8845215c7.546753 2.1557617 15.740967 10.133057 28.461914 16.81897c12.720947 6.685913 31.044556 16.395386 47.863525 23.296509c16.818848 6.901123 40.11194 13.798828 53.049805 18.11023c12.937866 4.3115234 19.833862 3.0148926 24.577515 7.758545c4.7436523 4.7436523 4.9622803 14.449707 3.8845215 20.703491c-1.0778809 6.253662 -3.8828125 14.015747 -10.351807 16.818848c-6.468872 2.8031006 -13.153076 4.0961914 -28.461914 0c-15.308838 -4.0961914 -48.943115 -18.75586 -63.391113 -24.577393c-14.447876 -5.821533 -16.827637 -8.626465 -23.296509 -10.351807c-6.468994 -1.7252197 -11.420898 -3.8809814 -15.51709 0c-4.0961914 3.8811035 -4.3149414 15.52417 -9.060425 23.286133c-4.7453613 7.762085 -15.315796 16.817139 -19.411987 23.286133c-4.0963135 6.468872 -8.615967 10.9991455 -5.1654053 15.527588c3.4505615 4.5283203 14.873169 5.821411 25.868774 11.642944c10.995605 5.821533 28.460205 17.24768 40.10498 23.286133c11.644775 6.038452 25.018433 7.121582 29.763794 12.944824c4.7453613 5.8233643 1.0814209 16.17334 -1.2913818 21.994751c-2.3726807 5.821533 -5.39624 11.641357 -12.944824 12.934448c-7.548584 1.2930908 -18.97815 0.6456299 -32.346436 -5.1759033c-13.368408 -5.821533 -36.22046 -23.931763 -47.863525 -29.753296c-11.643066 -5.821411 -17.03418 -8.194214 -21.994751 -5.1757812c-4.9606934 3.0183105 -5.1811523 16.171509 -7.769043 23.286133c-2.5878906 7.114502 -11.424316 14.442627 -7.758545 19.40149c3.6657715 4.9588623 16.383179 6.901123 29.753296 10.351685c13.370117 3.4505615 34.726196 5.3911133 50.467163 10.351807c15.741089 4.9605713 36.21704 12.080444 43.979004 19.411987c7.762085 7.331665 5.1793213 17.6781 2.5931396 24.577515c-2.5860596 6.899292 -7.328003 16.818848 -18.11023 16.818848c-10.7821045 0 -24.58789 -10.997437 -46.58264 -16.818848c-21.994751 -5.821533 -64.68591 -13.151367 -85.385864 -18.11023c-20.69983 -4.9589844 -32.127686 -4.5267334 -38.8136 -11.643066c-6.685913 -7.116455 -4.9676514 -21.56604 -1.3018799 -31.055176c3.6658936 -9.489014 16.395508 -12.510864 23.29663 -25.879272c6.901123 -13.368286 12.073486 -38.37439 18.11023 -54.33069c6.036743 -15.956299 9.916016 -27.606323 18.11023 -41.40686c8.194214 -13.800537 26.094482 -29.751465 31.055176 -41.39624c4.9605713 -11.644775 -2.8013916 -19.63086 -1.2913818 -28.472534c1.5100098 -8.841553 5.823242 -19.83374 10.351685 -24.577393z" fill-rule="evenodd"/><path fill="#000000" d="m1918.7035 1610.2103c10.349976 -3.4505615 32.985107 -3.6693115 47.863525 -3.8845215c14.878418 -0.21520996 29.977295 -1.2895508 41.40686 2.5932617c11.429565 3.8826904 19.83899 11.216064 27.170532 20.70337c7.331665 9.487305 15.30896 23.067383 16.81897 36.22046c1.5100098 13.153076 -4.7402344 32.348267 -7.758545 42.69812c-3.0184326 10.349976 -12.292236 16.16809 -10.351685 19.401611c1.9404297 3.2336426 15.095337 -3.0201416 21.994751 0c6.899414 3.0201416 15.090088 9.494385 19.401611 18.120728c4.3112793 8.626465 5.604492 21.13208 6.467041 33.637817c0.86279297 12.505737 0.86450195 29.536255 -1.2912598 41.396362c-2.1557617 11.859985 -5.821533 19.844238 -11.643066 29.763794c-5.821533 9.919434 -14.661377 22.853882 -23.28601 29.753296c-8.624756 6.899292 -17.67981 9.055054 -28.462036 11.642944c-10.7821045 2.5880127 -25.879272 4.9624023 -36.230957 3.8845215c-10.351685 -1.0778809 -17.900269 -3.6674805 -25.879272 -10.351685c-7.979004 -6.684204 -18.545898 -12.071777 -21.994751 -29.753296c-3.4487305 -17.681519 1.0849609 -60.16272 1.3018799 -76.33594c0.21691895 -16.173218 3.0201416 -11.214355 0 -20.70337c-3.0201416 -9.489136 -12.512695 -23.5083 -18.120728 -36.230957c-5.608032 -12.722656 -12.509155 -28.246826 -15.527588 -40.10498c-3.0183105 -11.858276 -3.2301025 -21.772583 -2.5826416 -31.044678c0.64746094 -9.272095 3.0166016 -17.686768 6.467163 -24.58789c3.4505615 -6.901123 3.8862305 -13.368408 14.236206 -16.81897z" fill-rule="evenodd"/><path fill="#ffffff" d="m1947.1713 1656.7861c2.3726807 -5.821533 13.587036 -3.6588135 20.70337 -3.8740234c7.116455 -0.21520996 16.173218 -0.0052490234 21.994751 2.5826416c5.821533 2.5878906 11.426147 7.338623 12.934448 12.944824c1.5083008 5.6063232 -0.003540039 12.930908 -3.8845215 20.692993c-3.8809814 7.761963 -13.580078 20.70337 -19.401611 25.879272c-5.821533 5.1757812 -11.214355 9.704224 -15.527588 5.1757812c-4.3131104 -4.5284424 -7.548462 -21.779541 -10.351685 -32.346436c-2.8031006 -10.566895 -8.839844 -25.23352 -6.467163 -31.055054z" fill-rule="evenodd"/><path stroke="#000000" stroke-width="1.0" stroke-linejoin="round" stroke-linecap="butt" d="m1947.1713 1656.7861c2.3726807 -5.821533 13.587036 -3.6588135 20.70337 -3.8740234c7.116455 -0.21520996 16.173218 -0.0052490234 21.994751 2.5826416c5.821533 2.5878906 11.426147 7.338623 12.934448 12.944824c1.5083008 5.6063232 -0.003540039 12.930908 -3.8845215 20.692993c-3.8809814 7.761963 -13.580078 20.70337 -19.401611 25.879272c-5.821533 5.1757812 -11.214355 9.704224 -15.527588 5.1757812c-4.3131104 -4.5284424 -7.548462 -21.779541 -10.351685 -32.346436c-2.8031006 -10.566895 -8.839844 -25.23352 -6.467163 -31.055054z" fill-rule="evenodd"/><path fill="#ffffff" d="m1989.8661 1775.8234c8.194336 -2.1557617 34.28174 -5.3911133 41.396362 0c7.114624 5.3911133 3.0166016 22.642212 1.2913818 32.346436c-1.7253418 9.704346 -5.1740723 19.84253 -11.643066 25.879272c-6.468994 6.036743 -20.70166 9.695557 -27.170654 10.341187c-6.468872 0.64575195 -9.702515 2.8049316 -11.642944 -6.467163c-1.9405518 -9.272095 -1.2949219 -38.81543 0 -49.165283c1.2947998 -10.349976 -0.42529297 -10.778687 7.768921 -12.934448z" fill-rule="evenodd"/><path stroke="#000000" stroke-width="1.0" stroke-linejoin="round" stroke-linecap="butt" d="m1989.8661 1775.8234c8.194336 -2.1557617 34.28174 -5.3911133 41.396362 0c7.114624 5.3911133 3.0166016 22.642212 1.2913818 32.346436c-1.7253418 9.704346 -5.1740723 19.84253 -11.643066 25.879272c-6.468994 6.036743 -20.70166 9.695557 -27.170654 10.341187c-6.468872 0.64575195 -9.702515 2.8049316 -11.642944 -6.467163c-1.9405518 -9.272095 -1.2949219 -38.81543 0 -49.165283c1.2947998 -10.349976 -0.42529297 -10.778687 7.768921 -12.934448z" fill-rule="evenodd"/><path fill="#000000" d="m2139.948 1625.7406c11.427734 -5.821533 22.419922 -9.704346 36.22046 -10.351685c13.800537 -0.64746094 32.565186 -2.1574707 46.58252 6.467163c14.017578 8.624634 29.328125 28.461914 37.52246 45.280884c8.194092 16.818848 10.565186 37.5188 11.643066 55.632446c1.0778809 18.11377 0.8625488 37.73938 -5.1760254 53.049927c-6.03833 15.310547 -16.822266 30.619385 -31.054932 38.8136c-14.23291 8.194214 -36.875 11.214355 -54.34131 10.351807c-17.466309 -0.8626709 -36.65625 -6.040283 -50.456543 -15.527588c-13.800537 -9.487305 -24.799805 -25.007935 -32.34668 -41.396362c-7.546631 -16.388428 -14.444336 -37.310547 -12.934326 -56.934326c1.5100098 -19.62378 12.937988 -46.577515 21.994873 -60.80847c9.056885 -14.230957 20.918457 -18.75586 32.346436 -24.577393z" fill-rule="evenodd"/><path fill="#ffffff" d="m2142.5264 1700.7721c3.4504395 -11.427734 12.939697 -21.55371 20.70337 -27.160034c7.763916 -5.6063232 16.39209 -10.573975 25.879395 -6.477661c9.487305 4.0961914 26.516113 15.097046 31.044434 31.055054c4.5285645 15.958008 3.6728516 52.402466 -3.8740234 64.69287c-7.546631 12.290527 -29.114502 12.500488 -41.40674 9.049927c-12.292236 -3.4505615 -26.955322 -17.89331 -32.346436 -29.753296c-5.3911133 -11.859985 -3.4506836 -29.979004 0 -41.40686z" fill-rule="evenodd"/><path stroke="#000000" stroke-width="1.0" stroke-linejoin="round" stroke-linecap="butt" d="m2142.5264 1700.7721c3.4504395 -11.427734 12.939697 -21.55371 20.70337 -27.160034c7.763916 -5.6063232 16.39209 -10.573975 25.879395 -6.477661c9.487305 4.0961914 26.516113 15.097046 31.044434 31.055054c4.5285645 15.958008 3.6728516 52.402466 -3.8740234 64.69287c-7.546631 12.290527 -29.114502 12.500488 -41.40674 9.049927c-12.292236 -3.4505615 -26.955322 -17.89331 -32.346436 -29.753296c-5.3911133 -11.859985 -3.4506836 -29.979004 0 -41.40686z" fill-rule="evenodd"/><path fill="#000000" d="m2269.3228 1570.1062c13.800537 -14.878418 50.465576 -45.93347 67.28613 -58.225708c16.8208 -12.292236 24.797852 -14.881958 33.63794 -15.527588c8.839844 -0.6456299 15.952637 5.6151123 19.401367 11.653564c3.4489746 6.038452 5.819824 17.03064 1.2915039 24.577393c-4.5285645 7.546875 -21.777832 15.312378 -28.461914 20.703491c-6.684326 5.390991 -11.643066 7.114502 -11.643066 11.642944c0 4.5284424 1.2929688 1.9422607 11.643066 15.527588c10.3498535 13.585327 40.10669 53.693848 50.456543 65.98425c10.350098 12.290527 6.036865 9.916016 11.643066 7.758545c5.6064453 -2.1574707 14.015869 -16.822388 21.994873 -20.70337c7.979004 -3.8811035 18.978027 -5.1706543 25.87915 -2.5827637c6.901123 2.5880127 14.232666 11.2109375 15.527588 18.11023c1.2949219 6.899414 4.9641113 9.053467 -7.758545 23.286133c-12.722656 14.232788 -51.326416 47.014893 -68.57739 62.11023c-17.25122 15.095337 -25.009766 23.935303 -34.9292 28.461914c-9.919434 4.5267334 -18.98169 3.8740234 -24.58789 -1.3017578c-5.606201 -5.1759033 -12.285156 -19.18811 -9.049805 -29.753296c3.2353516 -10.565186 21.347168 -26.091064 28.461914 -33.637817c7.114502 -7.546753 15.950928 -4.7419434 14.225586 -11.643066c-1.7250977 -6.901123 -14.659668 -16.393677 -24.577393 -29.763794c-9.917725 -13.369995 -27.597412 -40.3219 -34.928955 -50.456665c-7.331787 -10.134766 -2.8066406 -12.077026 -9.060547 -10.351685c-6.253662 1.7252197 -20.48291 16.174927 -28.461914 20.70337c-7.979004 4.5284424 -13.590576 9.055176 -19.41211 6.467285c-5.821533 -2.5880127 -15.51709 -13.154907 -15.51709 -21.994751c0 -8.839966 1.7165527 -16.16626 15.51709 -31.044678z" fill-rule="evenodd"/><path fill="#000000" d="m2504.7954 1376.0455c13.585449 1.2930908 18.115479 6.034912 20.703613 12.934326c2.5878906 6.899414 0.43041992 21.562622 -5.1760254 28.461914c-5.606201 6.899414 -19.40503 10.561768 -28.461914 12.934448c-9.056885 2.3726807 -21.35083 -4.0892334 -25.87915 1.3018799c-4.5285645 5.390991 -3.0166016 22.204712 -1.2915039 31.044556c1.7253418 8.839844 5.821533 18.7594 11.643066 21.994751c5.821533 3.2353516 14.01416 5.3945312 23.286133 -2.5826416c9.272217 -7.977295 20.27124 -33.63611 32.346436 -45.280884c12.075195 -11.644775 25.226562 -21.35254 40.10498 -24.58789c14.878418 -3.2353516 37.30542 -1.9405518 49.165283 5.1757812c11.860107 7.116455 19.406982 24.799683 21.994873 37.52234c2.5878906 12.722656 0.86450195 22.20996 -6.467285 38.81372c-7.331543 16.603638 -26.30957 43.77417 -37.522217 60.80835c-11.2126465 17.034058 -20.050781 34.49695 -29.753174 41.396362c-9.702637 6.899292 -22.208252 3.4487305 -28.462158 0c-6.253662 -3.4488525 -8.19751 -14.87146 -9.060303 -20.692993c-0.8625488 -5.821533 -6.034912 1.5048828 3.8845215 -14.236206c9.919434 -15.740967 45.92993 -62.958862 55.63257 -80.20996c9.702637 -17.251099 5.818115 -20.493408 2.5827637 -23.29663c-3.2353516 -2.8031006 -13.585449 -1.2860107 -21.994873 6.477783c-8.409424 7.763794 -15.956299 28.892334 -28.461914 40.10498c-12.505615 11.212524 -30.615967 23.937012 -46.572266 27.170532c-15.956055 3.2336426 -36.442627 0.6405029 -49.165283 -7.769043c-12.722656 -8.409424 -22.64209 -23.495972 -27.170654 -42.687622c-4.5283203 -19.19165 -3.8808594 -55.858276 0 -72.461914c3.8811035 -16.603638 9.270508 -21.770752 23.286133 -27.160156c14.015869 -5.389282 47.223145 -6.468872 60.80835 -5.1757812z" fill-rule="evenodd"/><path fill="#000000" d="m1438.0048 1012.56384c16.500488 -17.167053 36.498657 -34.838135 52.997437 -50.00525c16.498657 -15.167053 34.661377 -31.99823 45.99475 -40.997375c11.333252 -8.999084 18.838135 -7.329834 22.005249 -12.9973755c3.1671143 -5.6675415 -0.50219727 -12.839844 -3.0026855 -21.007874c-2.5003662 -8.167969 -9.0008545 -16.834595 -12.0 -28.0c-2.9991455 -11.165344 -5.6622314 -26.493408 -5.994751 -38.992126c-0.33239746 -12.498657 1.8337402 -26.832886 4.0 -36.0c2.1662598 -9.167053 4.8311768 -15.6692505 8.997437 -19.002625c4.1661377 -3.333313 12.0 -2.8311157 16.0 -0.9973755c4.0 1.8338013 8.0 7.333374 8.0 12.0c0 4.666687 -6.16626 9.501343 -8.0 16.0c-1.8338623 6.4987183 -2.5021973 14.3255005 -3.0026855 22.992126c-0.5003662 8.666687 -1.333374 21.007874 0 29.007874c1.333374 8.0 5.333374 11.993042 8.0 18.992126c2.666626 6.9991455 3.8337402 21.501343 8.0 23.002625c4.16626 1.5013428 10.663208 -9.161804 16.997437 -13.994751c6.3341064 -4.8328857 17.840698 -6.8345947 21.007812 -15.0026245c3.1671143 -8.167969 -2.3376465 -21.67102 -2.005249 -34.00525c0.33251953 -12.3341675 1.1671143 -29.000854 4.0 -40.0c2.8328857 -10.999084 8.663208 -18.495178 12.997437 -25.994751c4.3341064 -7.4995117 8.839844 -14.169678 13.0078125 -19.002625c4.1679688 -4.8328857 7.83374 -8.827637 12.0 -9.994751c4.16626 -1.1670532 10.498657 0.49346924 12.997437 2.9921265c2.4986572 2.4987183 3.8284912 7.8320312 1.994751 12.0c-1.8338623 4.16803 -8.498779 7.340332 -12.997437 13.007874c-4.498657 5.6675415 -10.827637 11.998291 -13.994751 20.997375c-3.1671143 8.9991455 -4.173218 22.496948 -5.0078125 32.997375c-0.8347168 10.500488 -1.0009766 23.504822 0 30.005249c1.0008545 6.5004883 -1.1618652 10.9973755 6.005249 8.9973755c7.1671143 -2.0 24.164429 -14.496887 36.997314 -20.997375c12.832886 -6.5004272 24.16626 -12.3377075 40.0 -18.005249c15.83374 -5.6675415 36.335938 -12.166199 55.002686 -16.0c18.666626 -3.8337402 35.497803 -6.502136 56.997314 -7.0026245c21.499634 -0.50042725 51.167114 1.4995728 72.0 4.0c20.832886 2.5004883 38.33069 7.335083 52.997437 11.0026245c14.666626 3.6675415 19.83545 5.1688843 35.002563 11.0026245c15.167114 5.8338013 25.333374 8.500488 56.0 24.0c30.666748 15.499573 91.49951 48.664917 128.0 68.997375c36.50049 20.332458 58.502197 33.664062 91.002686 52.997375c32.50049 19.333374 70.50049 42.00177 104.0 63.002625c33.49951 21.000854 73.163574 48.1698 96.997314 63.002686c23.83374 14.832886 33.338623 17.662231 46.00537 25.994751c12.666504 8.332397 22.495117 16.999146 29.994629 24.0c7.4995117 7.0008545 16.169678 12.171387 15.002686 18.005249c-1.1672363 5.83374 -11.504883 13.331543 -22.005371 16.997314c-10.500244 3.6657715 -31.998291 3.8303223 -40.997314 4.9974365c-8.999023 1.1671143 -13.830322 -1.328125 -12.997314 2.005249c0.8327637 3.333252 14.661377 9.994751 17.994629 17.994751c3.333496 8.0 1.6711426 19.67102 2.005371 30.005249c0.33422852 10.3342285 1.0007324 24.166138 0 32.0c-1.0009766 7.83374 -2.1716309 13.168823 -6.005371 15.002563c-3.8337402 1.8337402 -13.998291 1.5013428 -16.997314 -4.0c-2.9990234 -5.501343 -0.49682617 -18.006958 -0.99731445 -29.007812c-0.5004883 -11.0008545 -0.50561523 -28.16455 -2.005371 -36.997437c-1.4995117 -8.832886 -3.6586914 -12.500366 -6.9919434 -16.0c-3.333496 -3.4995117 -8.507568 -4.3306885 -13.008057 -4.9973145c-4.500244 -0.66674805 -9.662109 -1.0026855 -13.994629 0.99731445c-4.3325195 2.0 -8.833008 5.0026855 -12.0 11.002686c-3.1672363 6.0 -6.001709 17.163574 -7.0026855 24.997314c-1.0009766 7.83374 3.329834 16.671997 0.99731445 22.005249c-2.3322754 5.333374 -10.991943 9.6623535 -14.991943 9.994751c-4.0 0.33251953 -7.0080566 -2.3342285 -9.008057 -8.0c-2.0 -5.6657715 -3.6586914 -18.32898 -2.9919434 -25.994751c0.6665039 -7.6657715 7.4924316 -14.9991455 6.9919434 -20.0c-0.50024414 -5.0008545 -2.4951172 -9.170532 -9.994629 -10.005249c-7.4995117 -0.8345947 -19.168945 3.8303223 -35.002686 4.9974365c-15.83374 1.1671143 -45.166992 2.005249 -60.0 2.005249c-14.832764 0 -21.998291 -2.3377686 -28.997314 -2.005249c-6.9992676 0.33239746 -11.996582 1.4995117 -12.997314 4.0c-1.0009766 2.5003662 4.1591797 4.5021973 6.9919434 11.002563c2.8330078 6.5004883 8.671875 16.500488 10.005371 28.0c1.333252 11.499634 -0.33764648 30.16455 -2.005371 40.997437c-1.6674805 10.832886 -4.1679688 18.832886 -8.0 24.0c-3.8320312 5.1671143 -11.326172 9.002563 -14.991943 7.0025635c-3.6660156 -2.0 -7.0026855 -10.670166 -7.0026855 -19.002563c0 -8.33252 6.003418 -20.159302 7.0026855 -30.992188c0.99902344 -10.832886 2.1591797 -24.337646 -1.0080566 -34.00525c-3.1669922 -9.66748 -10.162598 -18.666626 -17.994629 -24.0c-7.8320312 -5.333252 -15.6640625 -6.3342285 -28.997314 -8.0c-13.333496 -1.6657715 -37.669434 -1.1618652 -51.002686 -1.994751c-13.333496 -0.83288574 -21.497803 -5.835449 -28.997314 -3.0025635c-7.499756 2.8328857 -11.832031 11.0008545 -16.0 20.0c-4.1679688 8.9991455 -7.0080566 24.32898 -9.008057 33.99475c-2.0 9.6657715 1.1740723 19.665771 -2.9919434 24.0c-4.16626 4.3342285 -18.17163 6.3376465 -22.005371 2.005249c-3.8337402 -4.3325195 -1.331543 -18.832886 -0.99731445 -28.0c0.33422852 -9.167114 0.16967773 -18.836426 3.0026855 -27.002686c2.8327637 -8.16626 15.327881 -17.067383 13.994629 -21.994751c-1.333252 -4.927368 -14.495117 -6.0682373 -21.994629 -7.56958c-7.499756 -1.5012207 -15.002686 -1.0323486 -23.002686 -1.4382324c-8.0 -0.40600586 -21.163696 -4.8311768 -24.997437 -0.9974365c-3.8337402 3.8337402 0.8294678 14.0 1.994751 24.0c1.1654053 10.0 4.164551 23.83374 4.9974365 36.0c0.83288574 12.16626 0.33239746 27.497803 0 36.997437c-0.33251953 9.499512 1.338501 15.832031 -1.994751 20.0c-3.333374 4.1679688 -13.839111 7.0078125 -18.005249 5.0078125c-4.16626 -2.0 -6.1593018 -6.3411865 -6.9921875 -17.007812c-0.83288574 -10.666748 1.994751 -33.160156 1.994751 -46.992188c0 -13.832031 -0.4951172 -26.666626 -1.994751 -36.0c-1.4995117 -9.333252 -0.8345947 -16.999146 -7.0025635 -20.0c-6.1679688 -3.0008545 -18.838135 1.8284912 -30.005249 1.994751c-11.167114 0.16625977 -27.331665 -0.99731445 -36.997437 -0.99731445c-9.6657715 0 -14.831177 -4.1698 -20.997314 0.99731445c-6.16626 5.1671143 -12.832886 19.83899 -16.0 30.005249c-3.1671143 10.16626 -1.8355713 22.159302 -3.0026855 30.992188c-1.1671143 8.832886 -0.33422852 19.004395 -4.0 22.005249c-3.6657715 3.0008545 -14.3289795 1.4995117 -17.994751 -4.0c-3.6657715 -5.499634 -4.9991455 -16.831177 -4.0 -28.997437c0.9991455 -12.16626 6.9956055 -34.498657 9.994751 -44.0c2.9991455 -9.501343 12.9991455 -9.506592 8.0 -13.0078125c-4.9991455 -3.5013428 -26.32898 -5.501343 -37.99475 -8.0c-11.6657715 -2.4987793 -27.832031 -10.659668 -32.0 -6.9921875c-4.1679688 3.6676025 4.3254395 14.664917 6.9921875 28.997437c2.666626 14.332397 7.1740723 38.16443 9.0078125 56.997314c1.8337402 18.832886 2.4952393 41.83374 1.994751 56.0c-0.5003662 14.16626 -1.1635742 24.496948 -4.9973145 28.997437c-3.8338623 4.500366 -14.171509 1.6710205 -18.005249 -1.994751c-3.8338623 -3.6657715 -4.3308105 -6.666748 -4.9974365 -20.0c-0.666626 -13.333374 1.8303223 -42.999146 0.9974365 -60.0c-0.83288574 -17.000854 -3.328125 -26.838135 -5.994751 -42.00525c-2.666748 -15.167114 -5.0043945 -39.331665 -10.005249 -48.997437c-5.0009766 -9.6657715 -8.834717 -7.6640625 -20.0 -8.997314c-11.165405 -1.333374 -34.49353 -0.1697998 -46.992188 0.99731445c-12.498657 1.1671143 -18.332397 1.1723633 -28.0 6.005249c-9.66748 4.8328857 -21.004395 14.659668 -30.005249 22.992188c-9.0008545 8.332397 -17.499512 19.335083 -24.0 27.002563c-6.500366 7.6676025 -11.669312 11.168823 -15.002563 19.002686c-3.333374 7.83374 -3.998291 19.66748 -4.9974365 28.0c-0.9991455 8.332397 2.5021973 17.662231 -0.99731445 21.994751c-3.4996338 4.3323975 -15.665894 7.6657715 -20.0 4.0c-4.3342285 -3.6657715 -7.0043945 -13.496094 -6.005249 -25.994751c0.99902344 -12.498779 2.9990234 -33.664062 12.0 -48.997437c9.0008545 -15.333252 32.838135 -34.00171 42.00525 -43.002563c9.167114 -9.0008545 21.998169 -10.502197 12.997314 -11.002686c-9.0008545 -0.5003662 -37.66931 7.499634 -67.00256 8.0c-29.333374 0.5004883 -82.49878 -1.8302002 -108.99744 -4.9973145c-26.498657 -3.1671143 -35.494263 -6.5057373 -49.99475 -14.005249c-14.500366 -7.499634 -30.673706 -18.659668 -37.007812 -30.992188c-6.3342285 -12.332397 -8.498779 -27.002563 -0.9974365 -43.002563c7.501343 -16.0 29.504883 -35.830322 46.00525 -52.997437z" fill-rule="evenodd"/><path fill="#ffffff" d="m1419.0057 1099.5562c-4.3325195 -9.501221 3.0025635 -22.334106 11.002563 -36.0c8.0 -13.6657715 18.498657 -27.495972 36.997437 -45.99469c18.498657 -18.498718 51.328003 -45.83026 73.99475 -64.997375c22.666626 -19.167114 47.50476 -39.170593 62.00525 -50.00525c14.500366 -10.834656 19.8302 -14.335999 24.997314 -15.0026245c5.1671143 -0.666687 1.0043945 9.0026245 6.005249 11.0026245c5.0008545 2.0 20.334229 4.9973755 24.0 0.9973755c3.6657715 -4.0 -3.6710205 -18.498718 -2.005249 -24.997375c1.6657715 -6.4987183 -0.5003662 -7.161865 12.0 -13.994751c12.500488 -6.8328857 40.1698 -19.83551 63.002686 -27.002625c22.832886 -7.1671143 46.495117 -12.832886 73.99475 -16.0c27.499512 -3.1671143 64.834595 -5.335083 91.00256 -3.0026245c26.167969 2.3324585 41.83899 9.163574 66.00525 16.997375c24.16626 7.83374 46.659668 14.3377075 78.99219 30.005249c32.33252 15.6675415 79.002686 44.1662 115.002686 64.0c36.0 19.83374 65.4978 34.335938 100.997314 55.002625c35.49951 20.666626 80.33252 49.331543 112.0 68.997314c31.66748 19.665894 56.171387 34.997437 78.00513 48.997437c21.83374 14.0 40.66504 26.668457 52.99756 35.002563c12.332275 8.3342285 22.330566 11.835571 20.997314 15.002686c-1.3334961 3.1671143 -20.33081 3.0008545 -28.997314 4.0c-8.666748 0.9991455 -15.503174 3.994751 -23.002686 1.994751c-7.4995117 -2.0 -15.328125 -12.827637 -21.994873 -13.994751c-6.666504 -1.1671143 -15.172363 3.1600342 -18.005127 6.9920654c-2.8330078 3.8320312 9.174072 13.333374 1.0078125 16.0c-8.16626 2.666748 -32.503906 -0.8345947 -50.005127 0c-17.501465 0.8347168 -35.503174 4.00708 -55.002686 5.0079346c-19.499512 1.0008545 -47.828613 0.99731445 -61.994873 0.99731445c-14.16626 0 -18.502197 2.1697998 -23.002441 -0.99731445c-4.5004883 -3.1671143 -1.3334961 -14.671875 -4.0 -18.005249c-2.666748 -3.333374 -8.0 -3.1618652 -12.0 -1.994751c-4.0 1.1671143 -10.500488 5.165283 -12.0 8.997314c-1.4997559 3.8320312 10.668213 12.661499 3.0024414 13.994751c-7.6657715 1.333374 -29.830078 -3.8284912 -48.997314 -5.994751c-19.166992 -2.1661377 -44.671875 -5.1688232 -66.00513 -7.0025635c-21.333496 -1.8337402 -47.328125 -3.333374 -61.994873 -4.0c-14.666626 -0.666626 -20.171509 3.1671143 -26.005249 0c-5.83374 -3.1671143 -4.4969482 -14.670166 -8.997314 -19.002686c-4.5004883 -4.3323975 -13.338623 -7.326294 -18.005249 -6.9920654c-4.666748 0.33422852 -8.661499 4.498657 -9.994751 8.997314c-1.333374 4.4987793 6.661377 14.995728 1.994751 17.994751c-4.666748 2.9991455 -17.662354 0.33251953 -29.994751 0c-12.33252 -0.33239746 -29.167114 0.17150879 -44.0 -1.994751c-14.832886 -2.1661377 -32.49695 -7.6691895 -44.997437 -11.002563c-12.500366 -3.333374 -19.338623 -6.9974365 -30.005249 -8.997437c-10.666626 -2.0 -27.662231 0.49694824 -33.99475 -3.0025635c-6.3323975 -3.4996338 -0.9991455 -14.3289795 -4.0 -17.994751c-3.0008545 -3.6657715 -9.338623 -3.6657715 -14.005249 -4.0c-4.666626 -0.33422852 -11.328125 -0.50390625 -13.994751 1.994751c-2.666626 2.4986572 2.661377 10.496948 -2.005249 12.997314c-4.666626 2.5004883 -12.161011 2.005249 -25.994751 2.005249c-13.83374 0 -43.8407 -2.3376465 -57.007812 -2.005249c-13.167114 0.33251953 -12.16272 2.9991455 -21.994751 4.0c-9.832031 1.0009766 -27.163696 2.3377686 -36.997437 2.005249c-9.83374 -0.33239746 -23.50476 -0.1661377 -22.005249 -4.0c1.4996338 -3.8337402 22.1698 -11.503052 31.002686 -19.002563c8.832886 -7.499634 19.161865 -19.161865 21.994751 -25.994751c2.8328857 -6.8328857 -1.331665 -12.3359375 -4.9974365 -15.002686c-3.6657715 -2.666626 -12.664917 -2.663086 -16.997314 -0.99731445c-4.3325195 1.6657715 -3.6640625 5.826782 -8.997437 10.992065c-5.333374 5.1654053 -13.835449 13.333374 -23.002563 20.0c-9.167114 6.666748 -20.33252 14.9991455 -32.0 20.0c-11.667603 5.0009766 -26.838135 7.8372803 -38.00525 10.005249c-11.167114 2.1679688 -17.497803 3.8355713 -28.997437 3.0026855c-11.499512 -0.83288574 -27.167114 -3.1654053 -40.0 -8.0c-12.832886 -4.834717 -32.664917 -11.506592 -36.997314 -21.007935z" fill-rule="evenodd"/><path stroke="#000000" stroke-width="1.0" stroke-linejoin="round" stroke-linecap="butt" d="m1419.0057 1099.5562c-4.3325195 -9.501221 3.0025635 -22.334106 11.002563 -36.0c8.0 -13.6657715 18.498657 -27.495972 36.997437 -45.99469c18.498657 -18.498718 51.328003 -45.83026 73.99475 -64.997375c22.666626 -19.167114 47.50476 -39.170593 62.00525 -50.00525c14.500366 -10.834656 19.8302 -14.335999 24.997314 -15.0026245c5.1671143 -0.666687 1.0043945 9.0026245 6.005249 11.0026245c5.0008545 2.0 20.334229 4.9973755 24.0 0.9973755c3.6657715 -4.0 -3.6710205 -18.498718 -2.005249 -24.997375c1.6657715 -6.4987183 -0.5003662 -7.161865 12.0 -13.994751c12.500488 -6.8328857 40.1698 -19.83551 63.002686 -27.002625c22.832886 -7.1671143 46.495117 -12.832886 73.99475 -16.0c27.499512 -3.1671143 64.834595 -5.335083 91.00256 -3.0026245c26.167969 2.3324585 41.83899 9.163574 66.00525 16.997375c24.16626 7.83374 46.659668 14.3377075 78.99219 30.005249c32.33252 15.6675415 79.002686 44.1662 115.002686 64.0c36.0 19.83374 65.4978 34.335938 100.997314 55.002625c35.49951 20.666626 80.33252 49.331543 112.0 68.997314c31.66748 19.665894 56.171387 34.997437 78.00513 48.997437c21.83374 14.0 40.66504 26.668457 52.99756 35.002563c12.332275 8.3342285 22.330566 11.835571 20.997314 15.002686c-1.3334961 3.1671143 -20.33081 3.0008545 -28.997314 4.0c-8.666748 0.9991455 -15.503174 3.994751 -23.002686 1.994751c-7.4995117 -2.0 -15.328125 -12.827637 -21.994873 -13.994751c-6.666504 -1.1671143 -15.172363 3.1600342 -18.005127 6.9920654c-2.8330078 3.8320312 9.174072 13.333374 1.0078125 16.0c-8.16626 2.666748 -32.503906 -0.8345947 -50.005127 0c-17.501465 0.8347168 -35.503174 4.00708 -55.002686 5.0079346c-19.499512 1.0008545 -47.828613 0.99731445 -61.994873 0.99731445c-14.16626 0 -18.502197 2.1697998 -23.002441 -0.99731445c-4.5004883 -3.1671143 -1.3334961 -14.671875 -4.0 -18.005249c-2.666748 -3.333374 -8.0 -3.1618652 -12.0 -1.994751c-4.0 1.1671143 -10.500488 5.165283 -12.0 8.997314c-1.4997559 3.8320312 10.668213 12.661499 3.0024414 13.994751c-7.6657715 1.333374 -29.830078 -3.8284912 -48.997314 -5.994751c-19.166992 -2.1661377 -44.671875 -5.1688232 -66.00513 -7.0025635c-21.333496 -1.8337402 -47.328125 -3.333374 -61.994873 -4.0c-14.666626 -0.666626 -20.171509 3.1671143 -26.005249 0c-5.83374 -3.1671143 -4.4969482 -14.670166 -8.997314 -19.002686c-4.5004883 -4.3323975 -13.338623 -7.326294 -18.005249 -6.9920654c-4.666748 0.33422852 -8.661499 4.498657 -9.994751 8.997314c-1.333374 4.4987793 6.661377 14.995728 1.994751 17.994751c-4.666748 2.9991455 -17.662354 0.33251953 -29.994751 0c-12.33252 -0.33239746 -29.167114 0.17150879 -44.0 -1.994751c-14.832886 -2.1661377 -32.49695 -7.6691895 -44.997437 -11.002563c-12.500366 -3.333374 -19.338623 -6.9974365 -30.005249 -8.997437c-10.666626 -2.0 -27.662231 0.49694824 -33.99475 -3.0025635c-6.3323975 -3.4996338 -0.9991455 -14.3289795 -4.0 -17.994751c-3.0008545 -3.6657715 -9.338623 -3.6657715 -14.005249 -4.0c-4.666626 -0.33422852 -11.328125 -0.50390625 -13.994751 1.994751c-2.666626 2.4986572 2.661377 10.496948 -2.005249 12.997314c-4.666626 2.5004883 -12.161011 2.005249 -25.994751 2.005249c-13.83374 0 -43.8407 -2.3376465 -57.007812 -2.005249c-13.167114 0.33251953 -12.16272 2.9991455 -21.994751 4.0c-9.832031 1.0009766 -27.163696 2.3377686 -36.997437 2.005249c-9.83374 -0.33239746 -23.50476 -0.1661377 -22.005249 -4.0c1.4996338 -3.8337402 22.1698 -11.503052 31.002686 -19.002563c8.832886 -7.499634 19.161865 -19.161865 21.994751 -25.994751c2.8328857 -6.8328857 -1.331665 -12.3359375 -4.9974365 -15.002686c-3.6657715 -2.666626 -12.664917 -2.663086 -16.997314 -0.99731445c-4.3325195 1.6657715 -3.6640625 5.826782 -8.997437 10.992065c-5.333374 5.1654053 -13.835449 13.333374 -23.002563 20.0c-9.167114 6.666748 -20.33252 14.9991455 -32.0 20.0c-11.667603 5.0009766 -26.838135 7.8372803 -38.00525 10.005249c-11.167114 2.1679688 -17.497803 3.8355713 -28.997437 3.0026855c-11.499512 -0.83288574 -27.167114 -3.1654053 -40.0 -8.0c-12.832886 -4.834717 -32.664917 -11.506592 -36.997314 -21.007935z" fill-rule="evenodd"/><path fill="#000000" d="m1598.0052 1023.38055l0 0c0 -9.288818 5.189209 -16.818848 11.590576 -16.818848l0 0c3.0739746 0 6.0220947 1.7719727 8.195679 4.9260864c2.173706 3.1541748 3.3948975 7.432129 3.3948975 11.892761l0 0c0 9.288879 -5.189331 16.818909 -11.590576 16.818909l0 0c-6.401367 0 -11.590576 -7.5300293 -11.590576 -16.818909z" fill-rule="evenodd"/><path stroke="#000000" stroke-width="1.0" stroke-linejoin="round" stroke-linecap="butt" d="m1598.0052 1023.38055l0 0c0 -9.288818 5.189209 -16.818848 11.590576 -16.818848l0 0c3.0739746 0 6.0220947 1.7719727 8.195679 4.9260864c2.173706 3.1541748 3.3948975 7.432129 3.3948975 11.892761l0 0c0 9.288879 -5.189331 16.818909 -11.590576 16.818909l0 0c-6.401367 0 -11.590576 -7.5300293 -11.590576 -16.818909z" fill-rule="evenodd"/></g></svg>